<?xml version="1.0" encoding="UTF-8" standalone="no"?>
<!-- Created with Inkscape (http://www.inkscape.org/) -->

<svg
   xmlns:dc="http://purl.org/dc/elements/1.1/"
   xmlns:cc="http://creativecommons.org/ns#"
   xmlns:rdf="http://www.w3.org/1999/02/22-rdf-syntax-ns#"
   xmlns:svg="http://www.w3.org/2000/svg"
   xmlns="http://www.w3.org/2000/svg"
   xmlns:sodipodi="http://sodipodi.sourceforge.net/DTD/sodipodi-0.dtd"
   xmlns:inkscape="http://www.inkscape.org/namespaces/inkscape"
   width="505"
   height="216"
   id="svg2"
   version="1.1"
   inkscape:version="0.48.2 r9819"
   sodipodi:docname="r1d1.svg">
  <defs
     id="defs4">
    <marker
       inkscape:stockid="Arrow2Mend"
       orient="auto"
       refY="0.0"
       refX="0.0"
       id="Arrow2Mend"
       style="overflow:visible;">
      <path
         id="path3862"
         style="font-size:12.0;fill-rule:evenodd;stroke-width:0.62500000;stroke-linejoin:round;"
         d="M 8.7185878,4.0337352 L -2.2072895,0.016013256 L 8.7185884,-4.0017078 C 6.9730900,-1.6296469 6.9831476,1.6157441 8.7185878,4.0337352 z "
         transform="scale(0.6) rotate(180) translate(0,0)" />
    </marker>
    <marker
       inkscape:stockid="Arrow2Lend"
       orient="auto"
       refY="0.0"
       refX="0.0"
       id="Arrow2Lend"
       style="overflow:visible;">
      <path
         id="path3856"
         style="font-size:12.0;fill-rule:evenodd;stroke-width:0.62500000;stroke-linejoin:round;"
         d="M 8.7185878,4.0337352 L -2.2072895,0.016013256 L 8.7185884,-4.0017078 C 6.9730900,-1.6296469 6.9831476,1.6157441 8.7185878,4.0337352 z "
         transform="scale(1.1) rotate(180) translate(1,0)" />
    </marker>
  </defs>
  <sodipodi:namedview
     id="base"
     pagecolor="#ffffff"
     bordercolor="#666666"
     borderopacity="1.0"
     inkscape:pageopacity="0.0"
     inkscape:pageshadow="2"
     inkscape:zoom="2"
     inkscape:cx="256.4643"
     inkscape:cy="38.707443"
     inkscape:document-units="px"
     inkscape:current-layer="layer1"
     showgrid="false"
     units="in"
     fit-margin-top="0"
     fit-margin-left="0"
     fit-margin-right="0"
     fit-margin-bottom="0"
     inkscape:window-width="1920"
     inkscape:window-height="1138"
     inkscape:window-x="-8"
     inkscape:window-y="-8"
     inkscape:window-maximized="1" />
  <metadata
     id="metadata7">
    <rdf:RDF>
      <cc:Work
         rdf:about="">
        <dc:format>image/svg+xml</dc:format>
        <dc:type
           rdf:resource="http://purl.org/dc/dcmitype/StillImage" />
        <dc:title></dc:title>
      </cc:Work>
    </rdf:RDF>
  </metadata>
  <g
     inkscape:label="Layer 1"
     inkscape:groupmode="layer"
     id="layer1"
     transform="translate(7.9999989,-844.35975)">
    <path
       style="fill:none;stroke:#000000;stroke-width:2;stroke-linecap:butt;stroke-linejoin:miter;stroke-miterlimit:4;stroke-opacity:1;stroke-dasharray:none"
       d="m 357.5,207 0,-199.5 139.52499,80.554791 0,120.445209 -139.52499,0"
       id="path3060"
       inkscape:connector-curvature="0"
       transform="translate(-7.9999989,844.35975)" />
    <rect
       style="fill:none;stroke:#000000;stroke-width:2.04081631;stroke-linecap:butt;stroke-linejoin:miter;stroke-miterlimit:4;stroke-opacity:1;stroke-dasharray:none"
       id="rect2985"
       width="197.95918"
       height="197.95918"
       x="1.0204082"
       y="853.38019" />
    <path
       sodipodi:type="arc"
       style="fill:#000000;stroke-width:2.99999995;stroke-miterlimit:4;stroke-dasharray:none;color:#000000;fill-opacity:1;fill-rule:nonzero;stroke-linecap:butt;stroke-linejoin:miter;stroke-opacity:1;stroke-dashoffset:0;marker:none;visibility:visible;display:inline;overflow:visible;enable-background:accumulate"
       id="path3757"
       sodipodi:cx="140.5"
       sodipodi:cy="134.5"
       sodipodi:rx="7.5"
       sodipodi:ry="7.5"
       d="m 148,134.5 c 0,4.14214 -3.35786,7.5 -7.5,7.5 -4.14214,0 -7.5,-3.35786 -7.5,-7.5 0,-4.14214 3.35786,-7.5 7.5,-7.5 4.14214,0 7.5,3.35786 7.5,7.5 z"
       transform="matrix(1.0666667,0,0,1.0666667,-149.86667,708.89308)" />
    <path
       sodipodi:type="arc"
       style="fill:#000000;stroke-width:3;stroke-miterlimit:4;stroke-dasharray:none"
       id="path3757-1"
       sodipodi:cx="140.5"
       sodipodi:cy="134.5"
       sodipodi:rx="7.5"
       sodipodi:ry="7.5"
       d="m 148,134.5 c 0,4.14214 -3.35786,7.5 -7.5,7.5 -4.14214,0 -7.5,-3.35786 -7.5,-7.5 0,-4.14214 3.35786,-7.5 7.5,-7.5 4.14214,0 7.5,3.35786 7.5,7.5 z"
       transform="matrix(1.0666667,0,0,1.0666667,-149.86667,908.89308)" />
    <path
       sodipodi:type="arc"
       style="fill:#000000;stroke-width:3;stroke-miterlimit:4;stroke-dasharray:none"
       id="path3757-1-7"
       sodipodi:cx="140.5"
       sodipodi:cy="134.5"
       sodipodi:rx="7.5"
       sodipodi:ry="7.5"
       d="m 148,134.5 c 0,4.14214 -3.35786,7.5 -7.5,7.5 -4.14214,0 -7.5,-3.35786 -7.5,-7.5 0,-4.14214 3.35786,-7.5 7.5,-7.5 4.14214,0 7.5,3.35786 7.5,7.5 z"
       transform="matrix(1.0666667,0,0,1.0666667,50.133329,908.89308)" />
    <path
       sodipodi:type="arc"
       style="fill:#000000;stroke-width:3;stroke-miterlimit:4;stroke-dasharray:none"
       id="path3757-1-7-4"
       sodipodi:cx="140.5"
       sodipodi:cy="134.5"
       sodipodi:rx="7.5"
       sodipodi:ry="7.5"
       d="m 148,134.5 c 0,4.14214 -3.35786,7.5 -7.5,7.5 -4.14214,0 -7.5,-3.35786 -7.5,-7.5 0,-4.14214 3.35786,-7.5 7.5,-7.5 4.14214,0 7.5,3.35786 7.5,7.5 z"
       transform="matrix(1.0666667,0,0,1.0666667,50.133329,708.89308)" />
    <path
       sodipodi:type="arc"
       style="fill:#000000;stroke-width:3;stroke-miterlimit:4;stroke-dasharray:none"
       id="path3757-7"
       sodipodi:cx="140.5"
       sodipodi:cy="134.5"
       sodipodi:rx="7.5"
       sodipodi:ry="7.5"
       d="m 148,134.5 c 0,4.14214 -3.35786,7.5 -7.5,7.5 -4.14214,0 -7.5,-3.35786 -7.5,-7.5 0,-4.14214 3.35786,-7.5 7.5,-7.5 4.14214,0 7.5,3.35786 7.5,7.5 z"
       transform="matrix(1.0666667,0,0,1.0666667,200.13333,708.89308)" />
    <path
       sodipodi:type="arc"
       style="fill:#000000;stroke-width:3;stroke-miterlimit:4;stroke-dasharray:none"
       id="path3757-1-4"
       sodipodi:cx="140.5"
       sodipodi:cy="134.5"
       sodipodi:rx="7.5"
       sodipodi:ry="7.5"
       d="m 148,134.5 c 0,4.14214 -3.35786,7.5 -7.5,7.5 -4.14214,0 -7.5,-3.35786 -7.5,-7.5 0,-4.14214 3.35786,-7.5 7.5,-7.5 4.14214,0 7.5,3.35786 7.5,7.5 z"
       transform="matrix(1.0666667,0,0,1.0666667,200.13333,908.89308)" />
    <path
       sodipodi:type="arc"
       style="fill:#000000;stroke-width:3;stroke-miterlimit:4;stroke-dasharray:none"
       id="path3757-1-7-0"
       sodipodi:cx="140.5"
       sodipodi:cy="134.5"
       sodipodi:rx="7.5"
       sodipodi:ry="7.5"
       d="m 148,134.5 c 0,4.14214 -3.35786,7.5 -7.5,7.5 -4.14214,0 -7.5,-3.35786 -7.5,-7.5 0,-4.14214 3.35786,-7.5 7.5,-7.5 4.14214,0 7.5,3.35786 7.5,7.5 z"
       transform="matrix(1.0666667,0,0,1.0666667,338.63333,908.89308)" />
    <path
       sodipodi:type="arc"
       style="fill:#000000;stroke-width:3;stroke-miterlimit:4;stroke-dasharray:none"
       id="path3757-1-7-4-9"
       sodipodi:cx="140.5"
       sodipodi:cy="134.5"
       sodipodi:rx="7.5"
       sodipodi:ry="7.5"
       d="m 148,134.5 c 0,4.14214 -3.35786,7.5 -7.5,7.5 -4.14214,0 -7.5,-3.35786 -7.5,-7.5 0,-4.14214 3.35786,-7.5 7.5,-7.5 4.14214,0 7.5,3.35786 7.5,7.5 z"
       transform="matrix(1.0666667,0,0,1.0666667,339.13333,786.89308)" />
    <path
       style="fill:none;stroke:#000000;stroke-width:2;stroke-linecap:butt;stroke-linejoin:miter;stroke-opacity:1;marker-end:url(#Arrow2Mend);stroke-miterlimit:4;stroke-dasharray:none;marker-start:none"
       d="m 227.5,103.5 105.5,0"
       id="path3830"
       inkscape:connector-curvature="0"
       transform="translate(-7.9999989,844.35975)" />
    <path
       sodipodi:type="arc"
       style="color:#000000;fill:#000000;fill-opacity:1;fill-rule:nonzero;stroke-width:3;stroke-linecap:butt;stroke-linejoin:miter;stroke-miterlimit:4;stroke-opacity:1;stroke-dasharray:none;stroke-dashoffset:0;marker:none;visibility:visible;display:inline;overflow:visible;enable-background:accumulate"
       id="path3757-8"
       sodipodi:cx="140.5"
       sodipodi:cy="134.5"
       sodipodi:rx="7.5"
       sodipodi:ry="7.5"
       d="m 148,134.5 a 7.5,7.5 0 1 1 -15,0 7.5,7.5 0 1 1 15,0 z"
       transform="matrix(1.0666667,0,0,1.0666667,-49.86667,708.89308)" />
    <path
       sodipodi:type="arc"
       style="color:#000000;fill:#000000;fill-opacity:1;fill-rule:nonzero;stroke-width:3;stroke-linecap:butt;stroke-linejoin:miter;stroke-miterlimit:4;stroke-opacity:1;stroke-dasharray:none;stroke-dashoffset:0;marker:none;visibility:visible;display:inline;overflow:visible;enable-background:accumulate"
       id="path3757-8-2"
       sodipodi:cx="140.5"
       sodipodi:cy="134.5"
       sodipodi:rx="7.5"
       sodipodi:ry="7.5"
       d="m 148,134.5 a 7.5,7.5 0 1 1 -15,0 7.5,7.5 0 1 1 15,0 z"
       transform="matrix(1.0666667,0,0,1.0666667,-149.86667,808.89308)" />
    <path
       sodipodi:type="arc"
       style="color:#000000;fill:#000000;fill-opacity:1;fill-rule:nonzero;stroke-width:3;stroke-linecap:butt;stroke-linejoin:miter;stroke-miterlimit:4;stroke-opacity:1;stroke-dasharray:none;stroke-dashoffset:0;marker:none;visibility:visible;display:inline;overflow:visible;enable-background:accumulate"
       id="path3757-8-4"
       sodipodi:cx="140.5"
       sodipodi:cy="134.5"
       sodipodi:rx="7.5"
       sodipodi:ry="7.5"
       d="m 148,134.5 a 7.5,7.5 0 1 1 -15,0 7.5,7.5 0 1 1 15,0 z"
       transform="matrix(1.0666667,0,0,1.0666667,-49.86667,908.89308)" />
    <path
       sodipodi:type="arc"
       style="color:#000000;fill:#000000;fill-opacity:1;fill-rule:nonzero;stroke-width:3;stroke-linecap:butt;stroke-linejoin:miter;stroke-miterlimit:4;stroke-opacity:1;stroke-dasharray:none;stroke-dashoffset:0;marker:none;visibility:visible;display:inline;overflow:visible;enable-background:accumulate"
       id="path3757-8-4-5"
       sodipodi:cx="140.5"
       sodipodi:cy="134.5"
       sodipodi:rx="7.5"
       sodipodi:ry="7.5"
       d="m 148,134.5 a 7.5,7.5 0 1 1 -15,0 7.5,7.5 0 1 1 15,0 z"
       transform="matrix(1.0666667,0,0,1.0666667,50.13333,808.89308)" />
    <path
       sodipodi:type="arc"
       style="fill:#000000;stroke-width:3;stroke-miterlimit:4;stroke-dasharray:none"
       id="path3757-1-4-5"
       sodipodi:cx="140.5"
       sodipodi:cy="134.5"
       sodipodi:rx="7.5"
       sodipodi:ry="7.5"
       d="m 148,134.5 a 7.5,7.5 0 1 1 -15,0 7.5,7.5 0 1 1 15,0 z"
       transform="matrix(1.0666667,0,0,1.0666667,200.13333,808.89308)" />
    <path
       sodipodi:type="arc"
       style="fill:#000000;stroke-width:3;stroke-miterlimit:4;stroke-dasharray:none"
       id="path3757-1-4-5-1"
       sodipodi:cx="140.5"
       sodipodi:cy="134.5"
       sodipodi:rx="7.5"
       sodipodi:ry="7.5"
       d="m 148,134.5 a 7.5,7.5 0 1 1 -15,0 7.5,7.5 0 1 1 15,0 z"
       transform="matrix(1.0666667,0,0,1.0666667,272.63333,908.89308)" />
    <path
       sodipodi:type="arc"
       style="fill:#000000;stroke-width:3;stroke-miterlimit:4;stroke-dasharray:none"
       id="path3757-1-7-4-9-7"
       sodipodi:cx="140.5"
       sodipodi:cy="134.5"
       sodipodi:rx="7.5"
       sodipodi:ry="7.5"
       d="m 148,134.5 a 7.5,7.5 0 1 1 -15,0 7.5,7.5 0 1 1 15,0 z"
       transform="matrix(1.0666667,0,0,1.0666667,339.13333,845.39308)" />
    <path
       sodipodi:type="arc"
       style="fill:#000000;stroke-width:3;stroke-miterlimit:4;stroke-dasharray:none"
       id="path3757-1-4-5-1-1"
       sodipodi:cx="140.5"
       sodipodi:cy="134.5"
       sodipodi:rx="7.5"
       sodipodi:ry="7.5"
       d="m 148,134.5 a 7.5,7.5 0 1 1 -15,0 7.5,7.5 0 1 1 15,0 z"
       transform="matrix(1.0666667,0,0,1.0666667,272.63333,748.39308)" />
  </g>
</svg>
