<?xml version="1.0" encoding="UTF-8" standalone="no"?>
<!-- Created with Inkscape (http://www.inkscape.org/) -->

<svg
   xmlns:dc="http://purl.org/dc/elements/1.1/"
   xmlns:cc="http://creativecommons.org/ns#"
   xmlns:rdf="http://www.w3.org/1999/02/22-rdf-syntax-ns#"
   xmlns:svg="http://www.w3.org/2000/svg"
   xmlns="http://www.w3.org/2000/svg"
   xmlns:sodipodi="http://sodipodi.sourceforge.net/DTD/sodipodi-0.dtd"
   xmlns:inkscape="http://www.inkscape.org/namespaces/inkscape"
   width="216"
   height="216"
   id="svg2"
   version="1.1"
   inkscape:version="0.48.2 r9819"
   sodipodi:docname="r2d2_labels.pdf">
  <defs
     id="defs4" />
  <sodipodi:namedview
     id="base"
     pagecolor="#ffffff"
     bordercolor="#666666"
     borderopacity="1.0"
     inkscape:pageopacity="0.0"
     inkscape:pageshadow="2"
     inkscape:zoom="2"
     inkscape:cx="108.97605"
     inkscape:cy="174.94934"
     inkscape:document-units="px"
     inkscape:current-layer="layer1"
     showgrid="false"
     units="in"
     fit-margin-top="0"
     fit-margin-left="0"
     fit-margin-right="0"
     fit-margin-bottom="0"
     inkscape:window-width="1920"
     inkscape:window-height="1138"
     inkscape:window-x="-8"
     inkscape:window-y="-8"
     inkscape:window-maximized="1" />
  <metadata
     id="metadata7">
    <rdf:RDF>
      <cc:Work
         rdf:about="">
        <dc:format>image/svg+xml</dc:format>
        <dc:type
           rdf:resource="http://purl.org/dc/dcmitype/StillImage" />
        <dc:title></dc:title>
      </cc:Work>
    </rdf:RDF>
  </metadata>
  <g
     inkscape:label="Layer 1"
     inkscape:groupmode="layer"
     id="layer1"
     transform="translate(7.9999989,-844.35975)">
    <rect
       style="fill:none;stroke:#000000;stroke-width:2.04081631;stroke-linecap:butt;stroke-linejoin:miter;stroke-miterlimit:4;stroke-opacity:1;stroke-dasharray:none"
       id="rect2985"
       width="197.95918"
       height="197.95918"
       x="1.0204082"
       y="853.38019" />
    <path
       sodipodi:type="arc"
       style="fill:#000000;stroke-width:3;stroke-miterlimit:4;stroke-dasharray:none"
       id="path3757"
       sodipodi:cx="140.5"
       sodipodi:cy="134.5"
       sodipodi:rx="7.5"
       sodipodi:ry="7.5"
       d="m 148,134.5 c 0,4.14214 -3.35786,7.5 -7.5,7.5 -4.14214,0 -7.5,-3.35786 -7.5,-7.5 0,-4.14214 3.35786,-7.5 7.5,-7.5 4.14214,0 7.5,3.35786 7.5,7.5 z"
       transform="matrix(1.0666667,0,0,1.0666667,-149.86667,708.89308)" />
    <path
       sodipodi:type="arc"
       style="fill:#000000;stroke-width:3;stroke-miterlimit:4;stroke-dasharray:none"
       id="path3757-1"
       sodipodi:cx="140.5"
       sodipodi:cy="134.5"
       sodipodi:rx="7.5"
       sodipodi:ry="7.5"
       d="m 148,134.5 c 0,4.14214 -3.35786,7.5 -7.5,7.5 -4.14214,0 -7.5,-3.35786 -7.5,-7.5 0,-4.14214 3.35786,-7.5 7.5,-7.5 4.14214,0 7.5,3.35786 7.5,7.5 z"
       transform="matrix(1.0666667,0,0,1.0666667,-149.86667,908.89308)" />
    <path
       sodipodi:type="arc"
       style="fill:#000000;stroke-width:3;stroke-miterlimit:4;stroke-dasharray:none"
       id="path3757-1-7"
       sodipodi:cx="140.5"
       sodipodi:cy="134.5"
       sodipodi:rx="7.5"
       sodipodi:ry="7.5"
       d="m 148,134.5 c 0,4.14214 -3.35786,7.5 -7.5,7.5 -4.14214,0 -7.5,-3.35786 -7.5,-7.5 0,-4.14214 3.35786,-7.5 7.5,-7.5 4.14214,0 7.5,3.35786 7.5,7.5 z"
       transform="matrix(1.0666667,0,0,1.0666667,50.133329,908.89308)" />
    <path
       sodipodi:type="arc"
       style="fill:#000000;stroke-width:2.99999995;stroke-miterlimit:4;stroke-dasharray:none;color:#000000;fill-opacity:1;fill-rule:nonzero;stroke-linecap:butt;stroke-linejoin:miter;stroke-opacity:1;stroke-dashoffset:0;marker:none;visibility:visible;display:inline;overflow:visible;enable-background:accumulate"
       id="path3757-1-7-4"
       sodipodi:cx="140.5"
       sodipodi:cy="134.5"
       sodipodi:rx="7.5"
       sodipodi:ry="7.5"
       d="m 148,134.5 c 0,4.14214 -3.35786,7.5 -7.5,7.5 -4.14214,0 -7.5,-3.35786 -7.5,-7.5 0,-4.14214 3.35786,-7.5 7.5,-7.5 4.14214,0 7.5,3.35786 7.5,7.5 z"
       transform="matrix(1.0666667,0,0,1.0666667,50.133329,708.89308)" />
    <path
       sodipodi:type="arc"
       style="fill:#000000;stroke-width:3;stroke-miterlimit:4;stroke-dasharray:none"
       id="path12"
       sodipodi:cx="140.5"
       sodipodi:cy="134.5"
       sodipodi:rx="7.5"
       sodipodi:ry="7.5"
       d="m 148,134.5 c 0,4.14214 -3.35786,7.5 -7.5,7.5 -4.14214,0 -7.5,-3.35786 -7.5,-7.5 0,-4.14214 3.35786,-7.5 7.5,-7.5 4.14214,0 7.5,3.35786 7.5,7.5 z"
       transform="matrix(1.0666667,0,0,1.0666667,-49.86667,708.89308)" />
    <path
       sodipodi:type="arc"
       style="fill:#000000;stroke-width:3;stroke-miterlimit:4;stroke-dasharray:none"
       id="path3757-0"
       sodipodi:cx="140.5"
       sodipodi:cy="134.5"
       sodipodi:rx="7.5"
       sodipodi:ry="7.5"
       d="m 148,134.5 c 0,4.14214 -3.35786,7.5 -7.5,7.5 -4.14214,0 -7.5,-3.35786 -7.5,-7.5 0,-4.14214 3.35786,-7.5 7.5,-7.5 4.14214,0 7.5,3.35786 7.5,7.5 z"
       transform="matrix(1.0666667,0,0,1.0666667,-49.86667,908.89308)" />
    <path
       sodipodi:type="arc"
       style="color:#000000;fill:#000000;fill-opacity:1;fill-rule:nonzero;stroke-width:3;stroke-linecap:butt;stroke-linejoin:miter;stroke-miterlimit:4;stroke-opacity:1;stroke-dasharray:none;stroke-dashoffset:0;marker:none;visibility:visible;display:inline;overflow:visible;enable-background:accumulate"
       id="path3757-1-7-4-4"
       sodipodi:cx="140.5"
       sodipodi:cy="134.5"
       sodipodi:rx="7.5"
       sodipodi:ry="7.5"
       d="m 148,134.5 c 0,4.14214 -3.35786,7.5 -7.5,7.5 -4.14214,0 -7.5,-3.35786 -7.5,-7.5 0,-4.14214 3.35786,-7.5 7.5,-7.5 4.14214,0 7.5,3.35786 7.5,7.5 z"
       transform="matrix(1.0666667,0,0,1.0666667,50.13333,808.89308)" />
    <path
       sodipodi:type="arc"
       style="color:#000000;fill:#000000;fill-opacity:1;fill-rule:nonzero;stroke-width:3;stroke-linecap:butt;stroke-linejoin:miter;stroke-miterlimit:4;stroke-opacity:1;stroke-dasharray:none;stroke-dashoffset:0;marker:none;visibility:visible;display:inline;overflow:visible;enable-background:accumulate"
       id="path3757-1-7-4-4-8"
       sodipodi:cx="140.5"
       sodipodi:cy="134.5"
       sodipodi:rx="7.5"
       sodipodi:ry="7.5"
       d="m 148,134.5 c 0,4.14214 -3.35786,7.5 -7.5,7.5 -4.14214,0 -7.5,-3.35786 -7.5,-7.5 0,-4.14214 3.35786,-7.5 7.5,-7.5 4.14214,0 7.5,3.35786 7.5,7.5 z"
       transform="matrix(1.0666667,0,0,1.0666667,-149.86667,808.89308)" />
    <text
       xml:space="preserve"
       style="font-size:40px;font-style:normal;font-weight:normal;line-height:125%;letter-spacing:0px;word-spacing:0px;fill:#000000;fill-opacity:1;stroke:none;font-family:Sans"
       x="93.604492"
       y="1041.8597"
       id="text2992"
       sodipodi:linespacing="125%"><tspan
         sodipodi:role="line"
         id="tspan2994"
         x="93.604492"
         y="1041.8597"
         style="font-size:22px">1</tspan></text>
    <text
       xml:space="preserve"
       style="font-size:40px;font-style:normal;font-weight:normal;line-height:125%;letter-spacing:0px;word-spacing:0px;fill:#000000;fill-opacity:1;stroke:none;font-family:Sans"
       x="176.35547"
       y="1041.8597"
       id="text3017"
       sodipodi:linespacing="125%"><tspan
         sodipodi:role="line"
         id="tspan3019"
         x="176.35547"
         y="1041.8597"
         style="font-size:22px">2</tspan></text>
    <text
       xml:space="preserve"
       style="font-size:40px;font-style:normal;font-weight:normal;line-height:125%;letter-spacing:0px;word-spacing:0px;fill:#000000;fill-opacity:1;stroke:none;font-family:Sans"
       x="176.07617"
       y="960.08044"
       id="text3033"
       sodipodi:linespacing="125%"><tspan
         sodipodi:role="line"
         id="tspan3035"
         x="176.07617"
         y="960.08044"
         style="font-size:22px">3</tspan></text>
    <text
       xml:space="preserve"
       style="font-size:22px;font-style:normal;font-weight:normal;line-height:125%;letter-spacing:0px;word-spacing:0px;fill:#000000;fill-opacity:1;stroke:none;font-family:Sans"
       x="9.086915"
       y="1041.5912"
       id="text3037"
       sodipodi:linespacing="125%"><tspan
         sodipodi:role="line"
         id="tspan3039"
         x="9.086915"
         y="1041.5912">0</tspan></text>
    <text
       xml:space="preserve"
       style="font-size:22px;font-style:normal;font-weight:normal;line-height:125%;letter-spacing:0px;word-spacing:0px;fill:#000000;fill-opacity:1;stroke:none;font-family:Sans"
       x="8.9580088"
       y="960.35974"
       id="text3041"
       sodipodi:linespacing="125%"><tspan
         sodipodi:role="line"
         id="tspan3043"
         x="8.9580088"
         y="960.35974">7</tspan></text>
    <text
       xml:space="preserve"
       style="font-size:22px;font-style:normal;font-weight:normal;line-height:125%;letter-spacing:0px;word-spacing:0px;fill:#000000;fill-opacity:1;stroke:none;font-family:Sans"
       x="9.1728525"
       y="880.09119"
       id="text3045"
       sodipodi:linespacing="125%"><tspan
         sodipodi:role="line"
         id="tspan3047"
         x="9.1728525"
         y="880.09119">6</tspan></text>
    <text
       xml:space="preserve"
       style="font-size:22px;font-style:normal;font-weight:normal;line-height:125%;letter-spacing:0px;word-spacing:0px;fill:#000000;fill-opacity:1;stroke:none;font-family:Sans"
       x="95.086914"
       y="880.09119"
       id="text3049"
       sodipodi:linespacing="125%"><tspan
         sodipodi:role="line"
         id="tspan3051"
         x="95.086914"
         y="880.09119">5</tspan></text>
    <text
       xml:space="preserve"
       style="font-size:22px;font-style:normal;font-weight:normal;line-height:125%;letter-spacing:0px;word-spacing:0px;fill:#000000;fill-opacity:1;stroke:none;font-family:Sans"
       x="176.7207"
       y="880.35974"
       id="text3053"
       sodipodi:linespacing="125%"><tspan
         sodipodi:role="line"
         id="tspan3055"
         x="176.7207"
         y="880.35974">4</tspan></text>
  </g>
</svg>
