<?xml version="1.0" encoding="UTF-8" standalone="no"?>
<!-- Created with Inkscape (http://www.inkscape.org/) -->

<svg
   xmlns:dc="http://purl.org/dc/elements/1.1/"
   xmlns:cc="http://creativecommons.org/ns#"
   xmlns:rdf="http://www.w3.org/1999/02/22-rdf-syntax-ns#"
   xmlns:svg="http://www.w3.org/2000/svg"
   xmlns="http://www.w3.org/2000/svg"
   xmlns:sodipodi="http://sodipodi.sourceforge.net/DTD/sodipodi-0.dtd"
   xmlns:inkscape="http://www.inkscape.org/namespaces/inkscape"
   width="327"
   height="266.5"
   id="svg2"
   version="1.1"
   inkscape:version="0.48.2 r9819"
   sodipodi:docname="r3d3.pdf">
  <defs
     id="defs4" />
  <sodipodi:namedview
     id="base"
     pagecolor="#ffffff"
     bordercolor="#666666"
     borderopacity="1.0"
     inkscape:pageopacity="0.0"
     inkscape:pageshadow="2"
     inkscape:zoom="2"
     inkscape:cx="141.97605"
     inkscape:cy="174.94934"
     inkscape:document-units="px"
     inkscape:current-layer="layer1"
     showgrid="false"
     units="in"
     fit-margin-top="0"
     fit-margin-left="0"
     fit-margin-right="0"
     fit-margin-bottom="0"
     inkscape:window-width="1920"
     inkscape:window-height="1138"
     inkscape:window-x="-8"
     inkscape:window-y="-8"
     inkscape:window-maximized="1" />
  <metadata
     id="metadata7">
    <rdf:RDF>
      <cc:Work
         rdf:about="">
        <dc:format>image/svg+xml</dc:format>
        <dc:type
           rdf:resource="http://purl.org/dc/dcmitype/StillImage" />
        <dc:title></dc:title>
      </cc:Work>
    </rdf:RDF>
  </metadata>
  <g
     inkscape:label="Layer 1"
     inkscape:groupmode="layer"
     id="layer1"
     transform="translate(119,-793.85975)">
    <rect
       style="fill:none;stroke:#000000;stroke-width:2.04081631;stroke-linecap:butt;stroke-linejoin:miter;stroke-miterlimit:4;stroke-opacity:1;stroke-dasharray:none"
       id="rect2985"
       width="197.95918"
       height="197.95918"
       x="1.0204082"
       y="853.38019" />
    <path
       sodipodi:type="arc"
       style="fill:#000000;stroke-width:3;stroke-miterlimit:4;stroke-dasharray:none"
       id="path3757"
       sodipodi:cx="140.5"
       sodipodi:cy="134.5"
       sodipodi:rx="7.5"
       sodipodi:ry="7.5"
       d="m 148,134.5 c 0,4.14214 -3.35786,7.5 -7.5,7.5 -4.14214,0 -7.5,-3.35786 -7.5,-7.5 0,-4.14214 3.35786,-7.5 7.5,-7.5 4.14214,0 7.5,3.35786 7.5,7.5 z"
       transform="matrix(1.0666667,0,0,1.0666667,-149.86667,708.89308)" />
    <path
       sodipodi:type="arc"
       style="fill:#000000;stroke-width:3;stroke-miterlimit:4;stroke-dasharray:none"
       id="path3757-1"
       sodipodi:cx="140.5"
       sodipodi:cy="134.5"
       sodipodi:rx="7.5"
       sodipodi:ry="7.5"
       d="m 148,134.5 c 0,4.14214 -3.35786,7.5 -7.5,7.5 -4.14214,0 -7.5,-3.35786 -7.5,-7.5 0,-4.14214 3.35786,-7.5 7.5,-7.5 4.14214,0 7.5,3.35786 7.5,7.5 z"
       transform="matrix(1.0666667,0,0,1.0666667,-149.86667,908.89308)" />
    <path
       sodipodi:type="arc"
       style="fill:#000000;stroke-width:3;stroke-miterlimit:4;stroke-dasharray:none"
       id="path3757-1-7"
       sodipodi:cx="140.5"
       sodipodi:cy="134.5"
       sodipodi:rx="7.5"
       sodipodi:ry="7.5"
       d="m 148,134.5 c 0,4.14214 -3.35786,7.5 -7.5,7.5 -4.14214,0 -7.5,-3.35786 -7.5,-7.5 0,-4.14214 3.35786,-7.5 7.5,-7.5 4.14214,0 7.5,3.35786 7.5,7.5 z"
       transform="matrix(1.0666667,0,0,1.0666667,50.133329,908.89308)" />
    <path
       sodipodi:type="arc"
       style="color:#000000;fill:#000000;fill-opacity:1;fill-rule:nonzero;stroke-width:3;stroke-linecap:butt;stroke-linejoin:miter;stroke-miterlimit:4;stroke-opacity:1;stroke-dasharray:none;stroke-dashoffset:0;marker:none;visibility:visible;display:inline;overflow:visible;enable-background:accumulate"
       id="path3757-1-7-4"
       sodipodi:cx="140.5"
       sodipodi:cy="134.5"
       sodipodi:rx="7.5"
       sodipodi:ry="7.5"
       d="m 148,134.5 c 0,4.14214 -3.35786,7.5 -7.5,7.5 -4.14214,0 -7.5,-3.35786 -7.5,-7.5 0,-4.14214 3.35786,-7.5 7.5,-7.5 4.14214,0 7.5,3.35786 7.5,7.5 z"
       transform="matrix(1.0666667,0,0,1.0666667,50.133329,708.89308)" />
    <path
       sodipodi:type="arc"
       style="fill:#000000;stroke-width:3;stroke-miterlimit:4;stroke-dasharray:none"
       id="path4344"
       sodipodi:cx="140.5"
       sodipodi:cy="134.5"
       sodipodi:rx="7.5"
       sodipodi:ry="7.5"
       d="m 148,134.5 c 0,4.14214 -3.35786,7.5 -7.5,7.5 -4.14214,0 -7.5,-3.35786 -7.5,-7.5 0,-4.14214 3.35786,-7.5 7.5,-7.5 4.14214,0 7.5,3.35786 7.5,7.5 z"
       transform="matrix(1.0666667,0,0,1.0666667,-83.86667,708.89308)" />
    <path
       sodipodi:type="arc"
       style="color:#000000;fill:#000000;fill-opacity:1;fill-rule:nonzero;stroke-width:3;stroke-linecap:butt;stroke-linejoin:miter;stroke-miterlimit:4;stroke-opacity:1;stroke-dasharray:none;stroke-dashoffset:0;marker:none;visibility:visible;display:inline;overflow:visible;enable-background:accumulate"
       id="path3757-1-7-4-4"
       sodipodi:cx="140.5"
       sodipodi:cy="134.5"
       sodipodi:rx="7.5"
       sodipodi:ry="7.5"
       d="m 148,134.5 c 0,4.14214 -3.35786,7.5 -7.5,7.5 -4.14214,0 -7.5,-3.35786 -7.5,-7.5 0,-4.14214 3.35786,-7.5 7.5,-7.5 4.14214,0 7.5,3.35786 7.5,7.5 z"
       transform="matrix(1.0666667,0,0,1.0666667,50.13333,842.89308)" />
    <path
       sodipodi:type="arc"
       style="color:#000000;fill:#000000;fill-opacity:1;fill-rule:nonzero;stroke-width:3;stroke-linecap:butt;stroke-linejoin:miter;stroke-miterlimit:4;stroke-opacity:1;stroke-dasharray:none;stroke-dashoffset:0;marker:none;visibility:visible;display:inline;overflow:visible;enable-background:accumulate"
       id="path3757-1-7-4-4-8"
       sodipodi:cx="140.5"
       sodipodi:cy="134.5"
       sodipodi:rx="7.5"
       sodipodi:ry="7.5"
       d="m 148,134.5 c 0,4.14214 -3.35786,7.5 -7.5,7.5 -4.14214,0 -7.5,-3.35786 -7.5,-7.5 0,-4.14214 3.35786,-7.5 7.5,-7.5 4.14214,0 7.5,3.35786 7.5,7.5 z"
       transform="matrix(1.0666667,0,0,1.0666667,-149.86667,842.89308)" />
    <path
       sodipodi:type="arc"
       style="color:#000000;fill:#000000;fill-opacity:1;fill-rule:nonzero;stroke-width:3;stroke-linecap:butt;stroke-linejoin:miter;stroke-miterlimit:4;stroke-opacity:1;stroke-dasharray:none;stroke-dashoffset:0;marker:none;visibility:visible;display:inline;overflow:visible;enable-background:accumulate"
       id="path3757-1-7-4-4-2"
       sodipodi:cx="140.5"
       sodipodi:cy="134.5"
       sodipodi:rx="7.5"
       sodipodi:ry="7.5"
       d="m 148,134.5 c 0,4.14214 -3.35786,7.5 -7.5,7.5 -4.14214,0 -7.5,-3.35786 -7.5,-7.5 0,-4.14214 3.35786,-7.5 7.5,-7.5 4.14214,0 7.5,3.35786 7.5,7.5 z"
       transform="matrix(1.0666667,0,0,1.0666667,50.133329,776.89308)" />
    <path
       sodipodi:type="arc"
       style="color:#000000;fill:#000000;fill-opacity:1;fill-rule:nonzero;stroke-width:3;stroke-linecap:butt;stroke-linejoin:miter;stroke-miterlimit:4;stroke-opacity:1;stroke-dasharray:none;stroke-dashoffset:0;marker:none;visibility:visible;display:inline;overflow:visible;enable-background:accumulate"
       id="path3757-1-7-4-4-8-4"
       sodipodi:cx="140.5"
       sodipodi:cy="134.5"
       sodipodi:rx="7.5"
       sodipodi:ry="7.5"
       d="m 148,134.5 c 0,4.14214 -3.35786,7.5 -7.5,7.5 -4.14214,0 -7.5,-3.35786 -7.5,-7.5 0,-4.14214 3.35786,-7.5 7.5,-7.5 4.14214,0 7.5,3.35786 7.5,7.5 z"
       transform="matrix(1.0666667,0,0,1.0666667,-149.86667,776.89308)" />
    <path
       sodipodi:type="arc"
       style="fill:#000000;stroke-width:3;stroke-miterlimit:4;stroke-dasharray:none"
       id="path3757-5"
       sodipodi:cx="140.5"
       sodipodi:cy="134.5"
       sodipodi:rx="7.5"
       sodipodi:ry="7.5"
       d="m 148,134.5 c 0,4.14214 -3.35786,7.5 -7.5,7.5 -4.14214,0 -7.5,-3.35786 -7.5,-7.5 0,-4.14214 3.35786,-7.5 7.5,-7.5 4.14214,0 7.5,3.35786 7.5,7.5 z"
       transform="matrix(1.0666667,0,0,1.0666667,-17.86667,708.89308)" />
    <path
       sodipodi:type="arc"
       style="fill:#000000;stroke-width:3;stroke-miterlimit:4;stroke-dasharray:none"
       id="path3757-17"
       sodipodi:cx="140.5"
       sodipodi:cy="134.5"
       sodipodi:rx="7.5"
       sodipodi:ry="7.5"
       d="m 148,134.5 c 0,4.14214 -3.35786,7.5 -7.5,7.5 -4.14214,0 -7.5,-3.35786 -7.5,-7.5 0,-4.14214 3.35786,-7.5 7.5,-7.5 4.14214,0 7.5,3.35786 7.5,7.5 z"
       transform="matrix(1.0666667,0,0,1.0666667,-83.86667,908.89308)" />
    <path
       sodipodi:type="arc"
       style="fill:#000000;stroke-width:3;stroke-miterlimit:4;stroke-dasharray:none"
       id="path3757-5-1"
       sodipodi:cx="140.5"
       sodipodi:cy="134.5"
       sodipodi:rx="7.5"
       sodipodi:ry="7.5"
       d="m 148,134.5 c 0,4.14214 -3.35786,7.5 -7.5,7.5 -4.14214,0 -7.5,-3.35786 -7.5,-7.5 0,-4.14214 3.35786,-7.5 7.5,-7.5 4.14214,0 7.5,3.35786 7.5,7.5 z"
       transform="matrix(1.0666667,0,0,1.0666667,-17.86667,908.89308)" />
    <rect
       style="fill:none;stroke:#000000;stroke-width:2.04081631;stroke-linecap:butt;stroke-linejoin:miter;stroke-miterlimit:4;stroke-opacity:1;stroke-dasharray:none"
       id="rect2985-6"
       width="197.95918"
       height="197.95918"
       x="-109.97959"
       y="802.88019" />
    <path
       sodipodi:type="arc"
       style="fill:#000000;stroke-width:3;stroke-miterlimit:4;stroke-dasharray:none"
       id="path3757-50"
       sodipodi:cx="140.5"
       sodipodi:cy="134.5"
       sodipodi:rx="7.5"
       sodipodi:ry="7.5"
       d="m 148,134.5 c 0,4.14214 -3.35786,7.5 -7.5,7.5 -4.14214,0 -7.5,-3.35786 -7.5,-7.5 0,-4.14214 3.35786,-7.5 7.5,-7.5 4.14214,0 7.5,3.35786 7.5,7.5 z"
       transform="matrix(1.0666667,0,0,1.0666667,-260.86667,658.39308)" />
    <path
       sodipodi:type="arc"
       style="fill:#000000;stroke-width:3;stroke-miterlimit:4;stroke-dasharray:none"
       id="path3757-1-2"
       sodipodi:cx="140.5"
       sodipodi:cy="134.5"
       sodipodi:rx="7.5"
       sodipodi:ry="7.5"
       d="m 148,134.5 c 0,4.14214 -3.35786,7.5 -7.5,7.5 -4.14214,0 -7.5,-3.35786 -7.5,-7.5 0,-4.14214 3.35786,-7.5 7.5,-7.5 4.14214,0 7.5,3.35786 7.5,7.5 z"
       transform="matrix(1.0666667,0,0,1.0666667,-260.86667,858.39308)" />
    <path
       sodipodi:type="arc"
       style="color:#000000;fill:#000000;fill-opacity:1;fill-rule:nonzero;stroke-width:3;stroke-linecap:butt;stroke-linejoin:miter;stroke-miterlimit:4;stroke-opacity:1;stroke-dasharray:none;stroke-dashoffset:0;marker:none;visibility:visible;display:inline;overflow:visible;enable-background:accumulate"
       id="path3757-1-7-4-6"
       sodipodi:cx="140.5"
       sodipodi:cy="134.5"
       sodipodi:rx="7.5"
       sodipodi:ry="7.5"
       d="m 148,134.5 c 0,4.14214 -3.35786,7.5 -7.5,7.5 -4.14214,0 -7.5,-3.35786 -7.5,-7.5 0,-4.14214 3.35786,-7.5 7.5,-7.5 4.14214,0 7.5,3.35786 7.5,7.5 z"
       transform="matrix(1.0666667,0,0,1.0666667,-60.86667,658.39308)" />
    <path
       sodipodi:type="arc"
       style="fill:#000000;stroke-width:3;stroke-miterlimit:4;stroke-dasharray:none"
       id="path4344-0"
       sodipodi:cx="140.5"
       sodipodi:cy="134.5"
       sodipodi:rx="7.5"
       sodipodi:ry="7.5"
       d="m 148,134.5 c 0,4.14214 -3.35786,7.5 -7.5,7.5 -4.14214,0 -7.5,-3.35786 -7.5,-7.5 0,-4.14214 3.35786,-7.5 7.5,-7.5 4.14214,0 7.5,3.35786 7.5,7.5 z"
       transform="matrix(1.0666667,0,0,1.0666667,-194.86667,658.39308)" />
    <path
       sodipodi:type="arc"
       style="color:#000000;fill:#808080;fill-opacity:1;fill-rule:nonzero;stroke-width:3;stroke-linecap:butt;stroke-linejoin:miter;stroke-miterlimit:4;stroke-opacity:1;stroke-dasharray:none;stroke-dashoffset:0;marker:none;visibility:visible;display:inline;overflow:visible;enable-background:accumulate"
       id="path3757-1-7-4-4-24"
       sodipodi:cx="140.5"
       sodipodi:cy="134.5"
       sodipodi:rx="7.5"
       sodipodi:ry="7.5"
       d="m 148,134.5 c 0,4.14214 -3.35786,7.5 -7.5,7.5 -4.14214,0 -7.5,-3.35786 -7.5,-7.5 0,-4.14214 3.35786,-7.5 7.5,-7.5 4.14214,0 7.5,3.35786 7.5,7.5 z"
       transform="matrix(1.0666667,0,0,1.0666667,-60.86667,792.39308)" />
    <path
       sodipodi:type="arc"
       style="color:#000000;fill:#000000;fill-opacity:1;fill-rule:nonzero;stroke-width:3;stroke-linecap:butt;stroke-linejoin:miter;stroke-miterlimit:4;stroke-opacity:1;stroke-dasharray:none;stroke-dashoffset:0;marker:none;visibility:visible;display:inline;overflow:visible;enable-background:accumulate"
       id="path3757-1-7-4-4-8-8"
       sodipodi:cx="140.5"
       sodipodi:cy="134.5"
       sodipodi:rx="7.5"
       sodipodi:ry="7.5"
       d="m 148,134.5 c 0,4.14214 -3.35786,7.5 -7.5,7.5 -4.14214,0 -7.5,-3.35786 -7.5,-7.5 0,-4.14214 3.35786,-7.5 7.5,-7.5 4.14214,0 7.5,3.35786 7.5,7.5 z"
       transform="matrix(1.0666667,0,0,1.0666667,-260.86667,792.39308)" />
    <path
       sodipodi:type="arc"
       style="color:#000000;fill:#808080;fill-opacity:1;fill-rule:nonzero;stroke-width:3;stroke-linecap:butt;stroke-linejoin:miter;stroke-miterlimit:4;stroke-opacity:1;stroke-dasharray:none;stroke-dashoffset:0;marker:none;visibility:visible;display:inline;overflow:visible;enable-background:accumulate"
       id="path3757-1-7-4-4-2-6"
       sodipodi:cx="140.5"
       sodipodi:cy="134.5"
       sodipodi:rx="7.5"
       sodipodi:ry="7.5"
       d="m 148,134.5 c 0,4.14214 -3.35786,7.5 -7.5,7.5 -4.14214,0 -7.5,-3.35786 -7.5,-7.5 0,-4.14214 3.35786,-7.5 7.5,-7.5 4.14214,0 7.5,3.35786 7.5,7.5 z"
       transform="matrix(1.0666667,0,0,1.0666667,-60.86667,726.39308)" />
    <path
       sodipodi:type="arc"
       style="color:#000000;fill:#000000;fill-opacity:1;fill-rule:nonzero;stroke-width:3;stroke-linecap:butt;stroke-linejoin:miter;stroke-miterlimit:4;stroke-opacity:1;stroke-dasharray:none;stroke-dashoffset:0;marker:none;visibility:visible;display:inline;overflow:visible;enable-background:accumulate"
       id="path3757-1-7-4-4-8-4-5"
       sodipodi:cx="140.5"
       sodipodi:cy="134.5"
       sodipodi:rx="7.5"
       sodipodi:ry="7.5"
       d="m 148,134.5 c 0,4.14214 -3.35786,7.5 -7.5,7.5 -4.14214,0 -7.5,-3.35786 -7.5,-7.5 0,-4.14214 3.35786,-7.5 7.5,-7.5 4.14214,0 7.5,3.35786 7.5,7.5 z"
       transform="matrix(1.0666667,0,0,1.0666667,-260.86667,726.39308)" />
    <path
       sodipodi:type="arc"
       style="fill:#000000;stroke-width:3;stroke-miterlimit:4;stroke-dasharray:none"
       id="path3757-5-0"
       sodipodi:cx="140.5"
       sodipodi:cy="134.5"
       sodipodi:rx="7.5"
       sodipodi:ry="7.5"
       d="m 148,134.5 c 0,4.14214 -3.35786,7.5 -7.5,7.5 -4.14214,0 -7.5,-3.35786 -7.5,-7.5 0,-4.14214 3.35786,-7.5 7.5,-7.5 4.14214,0 7.5,3.35786 7.5,7.5 z"
       transform="matrix(1.0666667,0,0,1.0666667,-128.86667,658.39308)" />
    <path
       sodipodi:type="arc"
       style="fill:#808080;stroke-width:3;stroke-miterlimit:4;stroke-dasharray:none"
       id="path3757-17-9"
       sodipodi:cx="140.5"
       sodipodi:cy="134.5"
       sodipodi:rx="7.5"
       sodipodi:ry="7.5"
       d="m 148,134.5 c 0,4.14214 -3.35786,7.5 -7.5,7.5 -4.14214,0 -7.5,-3.35786 -7.5,-7.5 0,-4.14214 3.35786,-7.5 7.5,-7.5 4.14214,0 7.5,3.35786 7.5,7.5 z"
       transform="matrix(1.0666667,0,0,1.0666667,-194.86667,858.39308)" />
    <path
       sodipodi:type="arc"
       style="fill:#808080;stroke-width:3;stroke-miterlimit:4;stroke-dasharray:none"
       id="path3757-5-1-0"
       sodipodi:cx="140.5"
       sodipodi:cy="134.5"
       sodipodi:rx="7.5"
       sodipodi:ry="7.5"
       d="m 148,134.5 c 0,4.14214 -3.35786,7.5 -7.5,7.5 -4.14214,0 -7.5,-3.35786 -7.5,-7.5 0,-4.14214 3.35786,-7.5 7.5,-7.5 4.14214,0 7.5,3.35786 7.5,7.5 z"
       transform="matrix(1.0666667,0,0,1.0666667,-128.86667,858.39308)" />
    <path
       style="fill:none;stroke:#000000;stroke-width:2;stroke-linecap:butt;stroke-linejoin:miter;stroke-miterlimit:4;stroke-opacity:1;stroke-dasharray:none"
       d="M -103.5,-42 8.5,10"
       id="path4407"
       inkscape:connector-curvature="0"
       transform="translate(-7.9999989,844.35975)" />
    <path
       style="fill:none;stroke:#000000;stroke-width:2;stroke-linecap:butt;stroke-linejoin:miter;stroke-miterlimit:4;stroke-opacity:1;stroke-dasharray:none"
       d="M 95.5,-41 207,9.5"
       id="path4917"
       inkscape:connector-curvature="0"
       transform="translate(-7.9999989,844.35975)" />
    <path
       style="fill:none;stroke:#000000;stroke-width:2;stroke-linecap:butt;stroke-linejoin:miter;stroke-miterlimit:4;stroke-opacity:1;stroke-dasharray:none"
       d="M -103,156 8,206.5"
       id="path4919"
       inkscape:connector-curvature="0"
       transform="translate(-7.9999989,844.35975)" />
    <path
       style="fill:none;stroke:#000000;stroke-width:2;stroke-linecap:butt;stroke-linejoin:miter;stroke-miterlimit:4;stroke-opacity:1;stroke-dasharray:none"
       d="M 207,206.5 96,156"
       id="path4921"
       inkscape:connector-curvature="0"
       transform="translate(-7.9999989,844.35975)" />
    <path
       sodipodi:type="arc"
       style="fill:#808080;stroke-width:3;stroke-miterlimit:4;stroke-dasharray:none"
       id="path3757-1-7-8"
       sodipodi:cx="140.5"
       sodipodi:cy="134.5"
       sodipodi:rx="7.5"
       sodipodi:ry="7.5"
       d="m 148,134.5 c 0,4.14214 -3.35786,7.5 -7.5,7.5 -4.14214,0 -7.5,-3.35786 -7.5,-7.5 0,-4.14214 3.35786,-7.5 7.5,-7.5 4.14214,0 7.5,3.35786 7.5,7.5 z"
       transform="matrix(1.0666667,0,0,1.0666667,-60.86667,858.39308)" />
    <path
       sodipodi:type="arc"
       style="color:#000000;fill:#000000;fill-opacity:1;fill-rule:nonzero;stroke-width:3;stroke-linecap:butt;stroke-linejoin:miter;stroke-miterlimit:4;stroke-opacity:1;stroke-dasharray:none;stroke-dashoffset:0;marker:none;visibility:visible;display:inline;overflow:visible;enable-background:accumulate"
       id="path3757-1-7-4-4-8-8-0"
       sodipodi:cx="140.5"
       sodipodi:cy="134.5"
       sodipodi:rx="7.5"
       sodipodi:ry="7.5"
       d="m 148,134.5 c 0,4.14214 -3.35786,7.5 -7.5,7.5 -4.14214,0 -7.5,-3.35786 -7.5,-7.5 0,-4.14214 3.35786,-7.5 7.5,-7.5 4.14214,0 7.5,3.35786 7.5,7.5 z"
       transform="matrix(1.0666667,0,0,1.0666667,-223.36667,875.89308)" />
    <path
       sodipodi:type="arc"
       style="color:#000000;fill:#000000;fill-opacity:1;fill-rule:nonzero;stroke-width:3;stroke-linecap:butt;stroke-linejoin:miter;stroke-miterlimit:4;stroke-opacity:1;stroke-dasharray:none;stroke-dashoffset:0;marker:none;visibility:visible;display:inline;overflow:visible;enable-background:accumulate"
       id="path3757-1-7-4-4-8-8-0-6"
       sodipodi:cx="140.5"
       sodipodi:cy="134.5"
       sodipodi:rx="7.5"
       sodipodi:ry="7.5"
       d="m 148,134.5 c 0,4.14214 -3.35786,7.5 -7.5,7.5 -4.14214,0 -7.5,-3.35786 -7.5,-7.5 0,-4.14214 3.35786,-7.5 7.5,-7.5 4.14214,0 7.5,3.35786 7.5,7.5 z"
       transform="matrix(1.0666667,0,0,1.0666667,-182.36667,893.89308)" />
    <path
       sodipodi:type="arc"
       style="fill:#808080;stroke-width:3;stroke-miterlimit:4;stroke-dasharray:none"
       id="path3757-1-7-8-1"
       sodipodi:cx="140.5"
       sodipodi:cy="134.5"
       sodipodi:rx="7.5"
       sodipodi:ry="7.5"
       d="m 148,134.5 c 0,4.14214 -3.35786,7.5 -7.5,7.5 -4.14214,0 -7.5,-3.35786 -7.5,-7.5 0,-4.14214 3.35786,-7.5 7.5,-7.5 4.14214,0 7.5,3.35786 7.5,7.5 z"
       transform="matrix(1.0666667,0,0,1.0666667,-24.36667,873.89308)" />
    <path
       sodipodi:type="arc"
       style="fill:#808080;stroke-width:3;stroke-miterlimit:4;stroke-dasharray:none"
       id="path3757-1-7-8-1-3"
       sodipodi:cx="140.5"
       sodipodi:cy="134.5"
       sodipodi:rx="7.5"
       sodipodi:ry="7.5"
       d="m 148,134.5 c 0,4.14214 -3.35786,7.5 -7.5,7.5 -4.14214,0 -7.5,-3.35786 -7.5,-7.5 0,-4.14214 3.35786,-7.5 7.5,-7.5 4.14214,0 7.5,3.35786 7.5,7.5 z"
       transform="matrix(1.0666667,0,0,1.0666667,12.63333,889.39308)" />
    <path
       sodipodi:type="arc"
       style="fill:#000000;stroke-width:3;stroke-miterlimit:4;stroke-dasharray:none"
       id="path3757-5-8"
       sodipodi:cx="140.5"
       sodipodi:cy="134.5"
       sodipodi:rx="7.5"
       sodipodi:ry="7.5"
       d="m 148,134.5 c 0,4.14214 -3.35786,7.5 -7.5,7.5 -4.14214,0 -7.5,-3.35786 -7.5,-7.5 0,-4.14214 3.35786,-7.5 7.5,-7.5 4.14214,0 7.5,3.35786 7.5,7.5 z"
       transform="matrix(1.0666667,0,0,1.0666667,-27.86667,674.39308)" />
    <path
       sodipodi:type="arc"
       style="fill:#000000;stroke-width:3;stroke-miterlimit:4;stroke-dasharray:none"
       id="path3757-5-8-9"
       sodipodi:cx="140.5"
       sodipodi:cy="134.5"
       sodipodi:rx="7.5"
       sodipodi:ry="7.5"
       d="m 148,134.5 c 0,4.14214 -3.35786,7.5 -7.5,7.5 -4.14214,0 -7.5,-3.35786 -7.5,-7.5 0,-4.14214 3.35786,-7.5 7.5,-7.5 4.14214,0 7.5,3.35786 7.5,7.5 z"
       transform="matrix(1.0666667,0,0,1.0666667,6.63333,688.89308)" />
    <path
       sodipodi:type="arc"
       style="fill:#000000;stroke-width:3;stroke-miterlimit:4;stroke-dasharray:none"
       id="path3757-5-8-3"
       sodipodi:cx="140.5"
       sodipodi:cy="134.5"
       sodipodi:rx="7.5"
       sodipodi:ry="7.5"
       d="m 148,134.5 c 0,4.14214 -3.35786,7.5 -7.5,7.5 -4.14214,0 -7.5,-3.35786 -7.5,-7.5 0,-4.14214 3.35786,-7.5 7.5,-7.5 4.14214,0 7.5,3.35786 7.5,7.5 z"
       transform="matrix(1.0666667,0,0,1.0666667,-224.86667,675.39308)" />
    <path
       sodipodi:type="arc"
       style="fill:#000000;stroke-width:3;stroke-miterlimit:4;stroke-dasharray:none"
       id="path3757-5-8-3-4"
       sodipodi:cx="140.5"
       sodipodi:cy="134.5"
       sodipodi:rx="7.5"
       sodipodi:ry="7.5"
       d="m 148,134.5 c 0,4.14214 -3.35786,7.5 -7.5,7.5 -4.14214,0 -7.5,-3.35786 -7.5,-7.5 0,-4.14214 3.35786,-7.5 7.5,-7.5 4.14214,0 7.5,3.35786 7.5,7.5 z"
       transform="matrix(1.0666667,0,0,1.0666667,-185.86667,692.89308)" />
  </g>
</svg>
